<?xml version="1.0" standalone="no"?>
<!DOCTYPE svg PUBLIC "-//W3C//DTD SVG 20010904//EN"
 "http://www.w3.org/TR/2001/REC-SVG-20010904/DTD/svg10.dtd">
<svg version="1.0" xmlns="http://www.w3.org/2000/svg"
 width="202.000000pt" height="202.000000pt" viewBox="0 0 202.000000 202.000000"
 preserveAspectRatio="xMidYMid meet">
<metadata>
Created by potrace 1.14, written by Peter Selinger 2001-2017
</metadata>
<g transform="translate(0.000000,202.000000) scale(0.100000,-0.100000)"
fill="#000000" stroke="none">
<path d="M996 1988 c-10 -18 -33 -60 -52 -93 -214 -363 -435 -823 -508 -1053
-35 -113 -40 -136 -40 -217 0 -111 13 -164 65 -271 47 -95 114 -174 195 -230
55 -37 122 -73 148 -79 6 -1 18 -5 26 -8 66 -28 234 -34 324 -12 129 32 218
83 311 181 148 153 204 371 148 570 -45 163 -141 394 -249 601 -23 46 -40 83
-36 83 4 0 2 4 -3 8 -6 4 -30 45 -54 92 -47 91 -226 413 -246 443 -11 16 -14
15 -29 -15z"/>
</g>
</svg>
